<?xml version="1.0" encoding="utf-8"?>
<!-- Generator: Adobe Illustrator 19.2.0, SVG Export Plug-In . SVG Version: 6.00 Build 0)  -->
<svg version="1.1" id="Layer_1" xmlns="http://www.w3.org/2000/svg" xmlns:xlink="http://www.w3.org/1999/xlink" x="0px" y="0px"
	 viewBox="0 0 960 236.7" style="enable-background:new 0 0 960 236.7;" xml:space="preserve">
<style type="text/css">
	.st0{fill:#6F6F6E;}
	.st1{fill:#FF8300;}
</style>
<g>
	<g>
		<rect x="536.6" y="23.8" class="st0" width="3.5" height="203"/>
	</g>
	<path class="st1" d="M252.6,23.8h-76.8v44.8V71h0l0.2,78.1c0,0.9,0.4,1.9,1.2,2.6c0.7,0.7,1.7,1.5,2.7,1.5h23.6l0,2.1l0.6,67.4
		c0,1.5,1.1,3,2.7,3.5c0.4,0.2,0.8,0.2,1.2,0.2c1.1,0,2-0.5,2.4-1.5l12.9-30.6l4.7-11.1l1.7-4l22.4-53.2c0.2-0.5,0.2-1,0.2-1.6
		c-0.1-0.6-0.3-1.1-0.7-1.6c-0.8-1-2-1.6-3.1-1.6l-3.1,0l-20,0l9.3-50.3h15.6h2.5c64.9,0,64.9,108.4,0,108.4h-2.9l0,0h-13.2
		l-19.9,47.2h11.8l24.4,0C385.2,226,385.2,24.4,252.6,23.8"/>
	<path class="st1" d="M179.9,158.9L179.9,158.9h-0.1c-2.2,0-4.4-1.1-6.5-3.1c-1.8-1.8-2.8-4.2-2.8-6.6l-0.1-30.7h-53.6v37h42.4
		c-9.1,19-22.2,24.4-42.7,24.4c-30.1,0-49.5-21.5-49.5-54.4c0-29.2,16.1-53.4,45.9-55.1v0h57.3v-1.8V23.8h-52.4c-0.5,0-0.9,0-1.4,0
		c-0.8,0-1.7,0-2.5,0h-1v0c-49.4,1.6-98.3,35.5-98.5,101.7c0.3,67.7,51.5,101.4,102.1,101.4c31.7,0,64.3-11.9,81.7-41.9l-0.2-26.2
		H179.9z"/>
	<path class="st1" d="M486.6,23.8H288.7c16.7,5.5,31.2,15,42.7,28.2c4.9,5.6,9.1,11.7,12.6,18.2h64l-83.2,148.7v7.8h161.7v-46.4
		h-83.4l83.5-148.7V23.8z"/>
	<polygon class="st0" points="589.4,112.3 589.4,23.6 621,23.6 621,34 600.8,34 600.8,61.1 619.3,61.1 619.3,71.4 600.8,71.4 
		600.8,102 621.9,102 621.9,112.3 	"/>
	<polygon class="st0" points="638.3,112.3 638.3,23.6 649.7,23.6 649.7,102 671.5,102 671.5,112.3 	"/>
	<polygon class="st0" points="683.9,112.3 683.9,23.6 715.6,23.6 715.6,34 695.4,34 695.4,61.1 713.8,61.1 713.8,71.4 695.4,71.4 
		695.4,102 716.5,102 716.5,112.3 	"/>
	<path class="st0" d="M760.6,112.4l-15.8-45l12.5-43.7h11.7L755,65.9l17.4,46.5H760.6z M732.9,23.6h11.4v88.7h-11.4V23.6z"/>
	<polygon class="st0" points="791.1,112.3 791.1,34 777.4,34 777.4,23.6 816.2,23.6 816.2,34 802.5,34 802.5,112.3 	"/>
	<path class="st0" d="M837.4,62h0.5c6.3,0,9.4-4.5,9.4-13.4c0-9.5-3.3-14.3-10-14.3V62z M826,112.3V23.6h8.6
		c9.9,0,16.9,3.5,20.9,10.4c2.3,4,3.5,8.5,3.5,13.5c0,8.9-3.1,15.4-9.2,19.7c4.9,4.1,8.9,13.1,12.1,27l4.1,18.2H854l-3.5-15.3
		c-2.2-9.6-4.4-16.5-6.5-20.5c-1.4-2.7-3.6-4-6.6-4.1v39.8H826z"/>
	<rect x="878.2" y="23.6" class="st0" width="11.4" height="88.7"/>
	<rect x="878.2" y="8.3" class="st0" width="11.4" height="10.2"/>
	<path class="st0" d="M933.2,112.4l-15.8-45l12.5-43.7h11.7l-14,42.2l17.4,46.5H933.2z M905.5,23.6h11.4v88.7h-11.4V23.6z"/>
	<path class="st0" d="M600.8,215.8h1.7c7.8,0,13-4.1,15.7-12.4c1.6-4.8,2.4-12.1,2.4-22c0-9.7-0.8-16.9-2.3-21.4
		c-2.6-7.7-7.8-11.6-15.5-11.6h-2V215.8z M589.4,226.4v-88.7h10.8c7.2,0,12.7,1.1,16.5,3.3c10.6,6.2,15.9,19.7,15.9,40.6
		c0,20.9-5.1,34.6-15.3,41c-3.9,2.5-9.6,3.7-17.3,3.7H589.4z"/>
	<path class="st0" d="M655,196.4h12.9l-6.5-37.5L655,196.4z M638.9,226.4l16.7-89.2h11.7l16.6,89.2h-11l-3.2-19.7h-16.5l-3.5,19.7
		H638.9z"/>
	<path class="st0" d="M734.9,222.3c-5.3,3.5-10.7,5.3-16.1,5.3c-10.2,0-17.8-5.1-23-15.4c-3.9-8-5.8-17.6-5.8-29
		c0-11.9,1.8-21.9,5.3-30c4.9-11.2,12.4-16.7,22.7-16.7c4.8,0,10.4,2.1,16.9,6.4v12.4c-6.3-5.8-11.7-8.8-16.2-8.8
		c-11.2,0-16.9,12.4-16.9,37.1c0,22.4,5.8,33.6,17.5,33.6c1.6,0,3-0.1,4.1-0.4v-27.4h-7.8V179h19.3V222.3"/>
	<rect x="748.9" y="137.7" class="st0" width="11.4" height="88.7"/>
	<rect x="702.9" y="125.1" class="st0" width="26.8" height="7.3"/>
	<polygon class="st0" points="783.2,226.4 783.2,148 769.6,148 769.6,137.7 808.3,137.7 808.3,148 794.7,148 794.7,226.4 	"/>
	<rect x="821.3" y="137.7" class="st0" width="11.4" height="88.7"/>
	<polygon class="st0" points="871.1,170.2 884.3,137.7 894.1,137.7 894.1,226.4 882.9,226.4 883.6,162 872.2,191.2 870.2,191.2 
		858.6,162 859.3,226.4 848.1,226.4 848.1,137.7 858,137.7 	"/>
</g>
</svg>
